<?xml version="1.0" encoding="UTF-8"?>
<svg width="24px" height="24px" viewBox="0 0 24 24" version="1.1" xmlns="http://www.w3.org/2000/svg" xmlns:xlink="http://www.w3.org/1999/xlink">
    <title>赞-默认</title>
    <g id="页面-1" stroke="none" stroke-width="1" fill="none" fill-rule="evenodd">
        <g id="供需大厅-供应信息" transform="translate(-1407.000000, -614.000000)">
            <g id="编组-10备份" transform="translate(974.000000, 470.000000)">
                <g id="编组-8" transform="translate(12.000000, 12.000000)">
                    <g id="编组-3" transform="translate(168.000000, 0.000000)">
                        <g id="赞-默认" transform="translate(253.000000, 132.000000)">
                            <rect id="矩形" opacity="0.736509811" x="0" y="0" width="24" height="23.950379"></rect>
                            <g id="编组-2" transform="translate(3.000000, 4.000000)" fill="#B4B4B4" fill-rule="nonzero">
                                <path d="M1,16.6652102 C0.44771525,16.6652102 6.76353751e-17,16.217495 0,15.6652102 L0,7.36501876 C-2.8967998e-16,6.81273401 0.44771525,6.36501876 1,6.36501876 L2.58038291,6.36501876 C3.5889806,6.08521174 4.32442939,5.67108988 4.78672926,5.1226532 C5.48017907,4.29999817 5.94372502,1.46709979 7.16764055,0.324440925 C7.67506804,-0.149298075 9.57294939,-0.319475329 10.2418865,1.35346567 C10.4490889,1.87165681 10.4627472,3.36335705 10.2828616,5.82856638 C10.2627342,6.10397426 10.469676,6.34355633 10.7450835,6.36368824 C10.7575202,6.36459735 10.7699866,6.36504088 10.7824565,6.36501876 L15.9620484,6.36501876 C16.7904756,6.36501876 17.4620484,7.03659164 17.4620484,7.86501876 C17.4620484,7.99274271 17.4457353,8.11994365 17.413505,8.24353415 L15.6072263,15.1698974 C15.3775446,16.0506354 14.5821449,16.6652102 13.6719509,16.6652102 L1,16.6652102 Z" id="形状结合"></path>
                            </g>
                        </g>
                    </g>
                </g>
            </g>
        </g>
    </g>
</svg>